<svg width="1200" height="675" viewBox="0 0 1200 675" fill="none" xmlns="http://www.w3.org/2000/svg">
  <rect width="1200" height="675" rx="32" fill="#ECFDF5"/>
  <rect x="48" y="48" width="1104" height="88" rx="24" fill="#047857"/>
  <text x="96" y="106" fill="#ECFEFF" font-family="'Poppins', 'Arial', sans-serif" font-size="40" font-weight="600">Calendar View – Monthly Schedule</text>
  <text x="96" y="150" fill="#0F172A" font-family="'Inter', 'Arial', sans-serif" font-size="24">Navigate months · Color-coded priorities · Visualize workload</text>
  <rect x="48" y="176" width="1104" height="451" rx="28" fill="white" stroke="#6EE7B7" stroke-width="3"/>
  <text x="96" y="228" fill="#047857" font-family="'Poppins', 'Arial', sans-serif" font-size="32" font-weight="600">March 2025</text>
  <g font-family="'Inter', 'Arial', sans-serif" font-size="22" fill="#0F172A">
    <text x="96" y="276">Sun</text>
    <text x="256" y="276">Mon</text>
    <text x="416" y="276">Tue</text>
    <text x="576" y="276">Wed</text>
    <text x="736" y="276">Thu</text>
    <text x="896" y="276">Fri</text>
    <text x="1056" y="276">Sat</text>
  </g>
  <g font-family="'Inter', 'Arial', sans-serif" font-size="20" fill="#0F172A">
    <rect x="96" y="304" width="144" height="112" rx="20" fill="#F0FDFA" stroke="#34D399" stroke-width="2"/>
    <text x="112" y="332" fill="#0F172A" font-weight="600">5</text>
    <rect x="112" y="348" width="112" height="40" rx="12" fill="#F97316" opacity="0.85"/>
    <text x="120" y="374" fill="white" font-weight="600">Launch email</text>
    <rect x="256" y="304" width="144" height="112" rx="20" fill="#F0FDFA" stroke="#34D399" stroke-width="2"/>
    <text x="272" y="332" font-weight="600">6</text>
    <rect x="272" y="348" width="112" height="40" rx="12" fill="#2563EB" opacity="0.9"/>
    <text x="280" y="374" fill="white" font-weight="600">Design review</text>
    <rect x="416" y="304" width="144" height="112" rx="20" fill="#F0FDFA" stroke="#34D399" stroke-width="2"/>
    <text x="432" y="332" font-weight="600">7</text>
    <rect x="432" y="348" width="112" height="40" rx="12" fill="#10B981" opacity="0.9"/>
    <text x="444" y="374" fill="white" font-weight="600">Content draft</text>
    <rect x="736" y="304" width="144" height="112" rx="20" fill="#FEF3C7" stroke="#F59E0B" stroke-width="2"/>
    <text x="752" y="332" font-weight="600">9</text>
    <text x="752" y="364" fill="#B45309" font-weight="600">2 tasks due</text>
    <rect x="896" y="304" width="144" height="112" rx="20" fill="#FEE2E2" stroke="#F87171" stroke-width="2"/>
    <text x="912" y="332" font-weight="600">10</text>
    <text x="912" y="364" fill="#B91C1C" font-weight="600">High priority</text>
  </g>
  <g font-family="'Inter', 'Arial', sans-serif" font-size="22" fill="#065F46">
    <text x="880" y="228">Today</text>
    <text x="976" y="228">•</text>
    <text x="1000" y="228">Jump to current month</text>
  </g>
</svg>
