<svg width="1200" height="675" viewBox="0 0 1200 675" fill="none" xmlns="http://www.w3.org/2000/svg">
  <rect width="1200" height="675" rx="32" fill="#F5F3FF"/>
  <rect x="48" y="48" width="1104" height="88" rx="24" fill="#6D28D9"/>
  <text x="96" y="108" fill="#F5F3FF" font-family="'Poppins', 'Arial', sans-serif" font-size="40" font-weight="600">Statistics – Monthly Highlights & Weekly Breakdown</text>
  <rect x="48" y="176" width="680" height="451" rx="28" fill="white" stroke="#DDD6FE" stroke-width="3"/>
  <text x="96" y="232" fill="#4C1D95" font-family="'Poppins', 'Arial', sans-serif" font-size="30" font-weight="600">Completed vs Active Tasks</text>
  <rect x="96" y="268" width="600" height="48" rx="16" fill="#C4B5FD"/>
  <text x="112" y="300" fill="#312E81" font-family="'Inter', 'Arial', sans-serif" font-size="22" font-weight="600">High Priority · 12 Completed · 4 Active</text>
  <rect x="96" y="332" width="520" height="48" rx="16" fill="#A5B4FC"/>
  <text x="112" y="364" fill="#1E1B4B" font-family="'Inter', 'Arial', sans-serif" font-size="22" font-weight="600">Medium Priority · 18 Completed · 6 Active</text>
  <rect x="96" y="396" width="440" height="48" rx="16" fill="#E0E7FF"/>
  <text x="112" y="428" fill="#312E81" font-family="'Inter', 'Arial', sans-serif" font-size="22" font-weight="600">Low Priority · 9 Completed · 3 Active</text>
  <rect x="96" y="472" width="600" height="120" rx="24" fill="#EEF2FF"/>
  <text x="112" y="520" fill="#4338CA" font-family="'Poppins', 'Arial', sans-serif" font-size="28" font-weight="600">Streak: 5 productive weeks</text>
  <rect x="768" y="176" width="384" height="451" rx="28" fill="white" stroke="#DDD6FE" stroke-width="3"/>
  <text x="816" y="232" fill="#4C1D95" font-family="'Poppins', 'Arial', sans-serif" font-size="30" font-weight="600">Weekly Breakdown</text>
  <g font-family="'Inter', 'Arial', sans-serif" font-size="22" fill="#312E81">
    <text x="816" y="284">Week 1 · 3/1 – 3/7</text>
    <text x="816" y="320">4 due · 3 completed</text>
    <text x="816" y="372">Week 2 · 3/8 – 3/14</text>
    <text x="816" y="408">6 due · 5 completed</text>
    <text x="816" y="460">Week 3 · 3/15 – 3/21</text>
    <text x="816" y="496">5 due · 4 completed</text>
    <text x="816" y="548">Week 4 · 3/22 – 3/28</text>
    <text x="816" y="584">7 due · 6 completed</text>
  </g>
  <rect x="816" y="296" width="320" height="4" fill="#C4B5FD"/>
  <rect x="816" y="420" width="320" height="4" fill="#C4B5FD"/>
  <rect x="816" y="540" width="320" height="4" fill="#C4B5FD"/>
</svg>
