<svg width="1200" height="675" viewBox="0 0 1200 675" fill="none" xmlns="http://www.w3.org/2000/svg">
  <rect width="1200" height="675" rx="32" fill="#EFF6FF"/>
  <rect x="48" y="48" width="1104" height="88" rx="24" fill="#1E3A8A"/>
  <text x="96" y="106" fill="#DBEAFE" font-family="'Poppins', 'Arial', sans-serif" font-size="40" font-weight="600">Task List – Bulk Actions</text>
  <rect x="48" y="160" width="1104" height="96" rx="24" fill="#1D4ED8" opacity="0.15"/>
  <text x="96" y="220" fill="#1D4ED8" font-family="'Inter', 'Arial', sans-serif" font-size="26" font-weight="600">Toggle Done · Delete Selected · Quick Edit</text>
  <rect x="48" y="280" width="1104" height="320" rx="28" fill="white" stroke="#DBEAFE" stroke-width="3"/>
  <g font-family="'Inter', 'Arial', sans-serif" font-size="22" font-weight="600" fill="#1E3A8A">
    <text x="96" y="328">Title</text>
    <text x="416" y="328">Due Date</text>
    <text x="628" y="328">Priority</text>
    <text x="832" y="328">Status</text>
    <text x="1000" y="328">Actions</text>
  </g>
  <g font-family="'Inter', 'Arial', sans-serif" font-size="22" fill="#1E293B">
    <text x="96" y="392">Design wireframes</text>
    <text x="416" y="392">14 Mar</text>
    <rect x="600" y="360" width="120" height="48" rx="16" fill="#F97316" opacity="0.9"/>
    <text x="620" y="392" fill="white" font-weight="600">High</text>
    <rect x="800" y="360" width="144" height="48" rx="16" fill="#22C55E" opacity="0.9"/>
    <text x="820" y="392" fill="white" font-weight="600">In Progress</text>
    <text x="1016" y="392">✎</text>
  </g>
  <g font-family="'Inter', 'Arial', sans-serif" font-size="22" fill="#1E293B">
    <text x="96" y="464">User testing plan</text>
    <text x="416" y="464">18 Mar</text>
    <rect x="600" y="432" width="120" height="48" rx="16" fill="#10B981" opacity="0.9"/>
    <text x="618" y="464" fill="white" font-weight="600">Medium</text>
    <rect x="800" y="432" width="144" height="48" rx="16" fill="#FACC15" opacity="0.9"/>
    <text x="820" y="464" fill="#854D0E" font-weight="600">Blocked</text>
    <text x="1016" y="464">✎</text>
  </g>
  <g font-family="'Inter', 'Arial', sans-serif" font-size="22" fill="#1E293B">
    <text x="96" y="536">Sprint retro notes</text>
    <text x="416" y="536">21 Mar</text>
    <rect x="600" y="504" width="120" height="48" rx="16" fill="#F3F4F6" stroke="#CBD5F5" stroke-width="2"/>
    <text x="616" y="536" fill="#1E40AF" font-weight="600">Low</text>
    <rect x="800" y="504" width="144" height="48" rx="16" fill="#CBD5F5"/>
    <text x="816" y="536" fill="#1E40AF" font-weight="600">Done</text>
    <text x="1016" y="536">✎</text>
  </g>
</svg>
